<svg width="20" height="20" viewBox="0 0 20 20" fill="none" xmlns="http://www.w3.org/2000/svg">
<path d="M3.125 3.375V6.75C3.125 7.30228 3.57272 7.75 4.125 7.75H7.5" stroke="#181818"/>
<path d="M16.875 16.625L16.875 13.25C16.875 12.6977 16.4273 12.25 15.875 12.25L12.5 12.25" stroke="#181818"/>
<path d="M17.0723 12.5C16.0425 15.4127 13.2663 17.5 10.001 17.5C6.73566 17.5 3.95945 15.4127 2.92969 12.5H4C4.97963 14.8488 7.29714 16.5 10.001 16.5C12.7048 16.5 15.0223 14.8488 16.002 12.5H17.0723ZM10.001 2.5C13.2663 2.5 16.0425 4.58734 17.0723 7.5H16.002C15.0223 5.15121 12.7048 3.5 10.001 3.5C7.29714 3.5 4.97963 5.15121 4 7.5H2.92969C3.95945 4.58734 6.73566 2.5 10.001 2.5Z" fill="#181818"/>
</svg>
