<svg width="73" height="16" viewBox="0 0 73 16" fill="none" xmlns="http://www.w3.org/2000/svg">
<path d="M35.4975 0.00887861H22.6742C19.7011 0.00887861 18.3833 1.89978 18.0785 3.70415V0.00887861H10.9622C10.5744 -0.0274516 10.1843 0.0482003 9.83818 0.226863C9.49207 0.405526 9.20446 0.679704 9.00945 1.01688L7.05745 3.9187H35.4938L35.4975 0.00887861Z" fill="#181818"/>
<path d="M0 15.2816H5.10546L11.5055 4.77397L6.94036 4.31579L0 15.2816Z" fill="#181818"/>
<path d="M40.4524 0.0125178H36.2487V3.92234H40.4524V0.0125178Z" fill="#181818"/>
<path d="M67.1418 6.1216L53.9884 5.32669C53.9884 7.37324 55.3105 8.74488 57.5629 8.93179L66.9324 9.66487C67.6524 9.72596 68.1033 9.90924 68.1033 10.5202C68.1033 11.102 67.5942 11.3143 66.5418 11.3143H53.7782V15.2852H66.8116C70.9258 15.2852 72.7273 13.8183 72.7273 10.4889C72.7273 7.49543 71.1054 6.36597 67.1418 6.1216Z" fill="#181818"/>
<path d="M53.8167 5.32669L49.6713 5.08233V9.57324C49.6713 10.9783 48.9804 11.406 46.5782 11.406H43.2756C41.2931 11.406 40.4524 10.8242 40.4524 9.57324V4.6547L36.248 4.34924V9.93907H36.1585C35.9185 8.32016 35.3178 6.42633 31.3236 6.15142L18.1695 5.2656C18.1695 7.31215 19.6102 8.53397 21.8625 8.77833L31.0225 9.72379C31.7433 9.78488 32.2844 9.9987 32.2844 10.6096C32.2844 11.2816 31.744 11.3427 30.9025 11.3427H18.0189V5.23361L13.8153 4.9587V15.286H30.9338C34.7476 15.286 35.9789 13.27 36.16 11.59H36.2495C36.7309 14.2474 39.0131 15.286 42.8865 15.286H47.152C51.6865 15.286 53.8189 13.8809 53.8189 10.5812L53.8167 5.32669Z" fill="#181818"/>
<path d="M72.4364 3.92233V0.00887784H58.3214C55.3833 0.00887784 54.0574 1.85979 53.8247 3.64524C53.8247 3.66561 53.8196 3.68597 53.8167 3.70633V0.00887784H49.6713V3.9187H72.4349L72.4364 3.92233Z" fill="#181818"/>
</svg>
