<svg width="24" height="24" viewBox="0 0 24 24" fill="none" xmlns="http://www.w3.org/2000/svg">
<path d="M13.0303 2.99023C13.28 2.99043 13.4803 3.26014 13.4805 3.58984L13.9004 5.49023C14.3703 5.62023 14.8106 5.8101 15.2305 6.04004L16.8799 4.99023C17.0198 4.85035 17.1897 4.78039 17.3496 4.78027C17.4596 4.78027 17.5599 4.82062 17.6299 4.89062L19.0996 6.36035C19.2796 6.53035 19.23 6.86059 19 7.10059L17.96 8.74023C18.19 9.16023 18.3698 9.61031 18.5098 10.0703L20.4199 10.5C20.6798 10.56 21.0193 10.7101 21.0195 10.96V13.0303C21.0195 13.2803 20.7499 13.4805 20.4199 13.4805L18.5303 13.9004C18.4003 14.3703 18.2104 14.8203 17.9805 15.2402L19.0195 16.8799C19.2595 17.1099 19.2999 17.4401 19.1299 17.6201L17.6602 19.0898C17.5902 19.1598 17.4899 19.2002 17.3799 19.2002C17.2199 19.2002 17.0501 19.1301 16.9102 18.9902L15.29 17.96C14.8701 18.1999 14.4103 18.3705 13.9404 18.5205L13.5195 20.4102C13.5195 20.74 13.3202 21.0095 13.0703 21.0098H10.9902C10.7402 21.0098 10.54 20.7402 10.54 20.4102L10.1299 18.54C9.64995 18.4 9.18971 18.2107 8.75977 17.9707L7.13965 19C6.99966 19.14 6.8299 19.21 6.66992 19.21C6.55995 19.2099 6.45963 19.1706 6.38965 19.1006L4.91992 17.6299C4.74029 17.4599 4.78999 17.1205 5.01953 16.8906L6.04004 15.2803C5.80004 14.8503 5.62047 14.3999 5.48047 13.9199L3.59961 13.5C3.26979 13.4998 3 13.2997 3 13.0498V10.9805C3 10.7206 3.26979 10.5207 3.59961 10.5205L5.46973 10.1006C5.60973 9.63059 5.81004 9.17977 6.04004 8.75977L5 7.12012C4.76005 6.89012 4.71966 6.54987 4.88965 6.37988L6.36035 4.91016C6.44021 4.84036 6.52992 4.79989 6.63965 4.7998C6.79963 4.7998 6.97036 4.8698 7.11035 5.00977L8.75 6.06055C9.17 5.83055 9.61008 5.64 10.0801 5.5L10.5 3.60059C10.5 3.27059 10.7002 3 10.9502 3H13.0303V2.99023ZM11.3896 3.9502L11 5.7002C10.92 6.0302 10.6698 6.30039 10.3398 6.40039C9.97 6.50037 9.60001 6.66 9.2002 6.87988C9.0602 6.95988 8.91 7 8.75 7C8.57012 7 8.40014 6.95045 8.24023 6.85059L6.73047 5.87988L5.87988 6.7207L6.83984 8.24023C7.01983 8.53021 7.04007 8.90021 6.87012 9.2002C6.65012 9.6002 6.48988 9.97059 6.37988 10.3506C6.2798 10.6804 6.01957 10.9298 5.67969 11.0098L3.9502 11.4004V12.5898L5.69043 12.9805C6.02022 13.0606 6.28969 13.3108 6.38965 13.6406C6.51963 14.0805 6.68016 14.4704 6.87012 14.8203C7.04005 15.1203 7.01982 15.4903 6.83984 15.7803L5.90039 17.2705L6.74023 18.1201L8.23047 17.1699C8.39033 17.0701 8.56041 17.0205 8.74023 17.0205C8.89017 17.0205 9.0505 17.0607 9.19043 17.1406C9.58026 17.3505 9.97029 17.5099 10.3701 17.6299C10.7001 17.7199 10.9602 17.9901 11.0303 18.3301L11.4102 20.0498H12.6104L13 18.3105C13.08 17.9805 13.3204 17.7104 13.6504 17.6104C14.1102 17.4704 14.4904 17.3098 14.8203 17.1299C14.9602 17.05 15.1204 17.0098 15.2803 17.0098C15.4602 17.0098 15.6401 17.0602 15.79 17.1602L17.2803 18.1104L18.1299 17.2705L17.1602 15.75C16.9802 15.46 16.9699 15.09 17.1299 14.79C17.3299 14.4201 17.4904 14.0298 17.6104 13.6299C17.7004 13.3002 17.97 13.0408 18.3096 12.9707L20.0596 12.5801V11.3906L18.29 10.9902C17.96 10.9202 17.6898 10.6698 17.5898 10.3398C17.4599 9.92001 17.3101 9.54008 17.1201 9.2002C16.9501 8.9002 16.9604 8.53023 17.1504 8.24023L18.1201 6.7207L17.2803 5.87988L15.75 6.85059C15.5901 6.95048 15.4201 6.99996 15.2402 7C15.0803 7 14.9203 6.95986 14.7803 6.87988C14.4103 6.67988 14.0296 6.52039 13.6396 6.40039C13.3098 6.31032 13.0505 6.04007 12.9805 5.7002L12.5898 3.9502H11.3896ZM12 8C14.2099 8 15.9999 9.79011 16 12C16 14.21 14.21 16 12 16C9.79 16 8 14.21 8 12C8.00013 9.79011 9.79008 8 12 8ZM12 9C10.3501 9 9.00013 10.3501 9 12C9 13.65 10.35 15 12 15C13.65 15 15 13.65 15 12C14.9999 10.3501 13.6499 9 12 9Z" fill="#262626"/>
</svg>
