<svg width="24" height="24" viewBox="0 0 24 24" fill="none" xmlns="http://www.w3.org/2000/svg">
<path d="M10.001 18C10.001 19.1 10.901 20 12.001 20C13.101 20 14.001 19.1 14.001 18H15.001C15.001 19.66 13.661 21 12.001 21C10.341 21 9.00098 19.66 9.00098 18H10.001ZM12.001 3C13.0608 3.0001 13.9306 3.81986 14.0107 4.84961C16.2307 5.66961 17.7207 7.7802 17.7207 10.2002V13.9004L18.9404 15.1201C19.1104 15.2901 19.2011 15.5199 19.2012 15.7598V16.5C19.2012 17 18.8008 17.4004 18.3008 17.4004H5.70117C5.20117 17.4004 4.80078 17 4.80078 16.5V15.7598C4.80084 15.5199 4.89072 15.29 5.06055 15.1201L6.28125 13.9004V10.2002C6.28125 7.7802 7.77121 5.66961 9.99121 4.84961C10.0814 3.81981 10.9511 3 12.001 3ZM12.001 3.90039C11.421 3.90039 10.9407 4.34995 10.8906 4.91992L10.8408 5.49023L10.3008 5.69043C8.41086 6.40046 7.18066 8.17025 7.18066 10.2002V14.2695L6.9209 14.5303L5.70117 15.75V16.4902H18.3008V15.75L16.8203 14.2695V10.2002C16.8203 8.16037 15.6009 6.40055 13.7012 5.69043L13.1611 5.49023L13.1104 4.91992C13.0603 4.35004 12.5808 3.90049 12.001 3.90039Z" fill="#181818"/>
</svg>
