<svg width="24" height="24" viewBox="0 0 24 24" fill="none" xmlns="http://www.w3.org/2000/svg">
<path d="M7.14802 9.78435C7.49761 10.1339 7.97177 10.3303 8.46618 10.3303C9.49573 10.3303 10.3303 9.49573 10.3303 8.46618C10.3303 7.97177 10.1339 7.49761 9.78435 7.14802L7.25463 4.6183C8.23853 4.14839 9.34392 3.99507 10.4186 4.17945C11.4932 4.36384 12.4843 4.87685 13.2553 5.64785C14.0263 6.41885 14.5393 7.40991 14.7237 8.48457C14.9081 9.55922 14.7548 10.6646 14.2848 11.6485L19.5575 16.9212C19.9071 17.2708 20.1035 17.7449 20.1035 18.2393C20.1035 18.7338 19.9071 19.2079 19.5575 19.5575C19.2079 19.9071 18.7338 20.1035 18.2393 20.1035C17.7449 20.1035 17.2708 19.9071 16.9212 19.5575L11.6485 14.2848C10.6646 14.7548 9.55922 14.9081 8.48457 14.7237C7.40991 14.5393 6.41885 14.0263 5.64785 13.2553C4.87685 12.4843 4.36384 11.4932 4.17945 10.4186C3.99507 9.34392 4.14839 8.23853 4.6183 7.25463L7.14802 9.78435Z" stroke="#262626" stroke-linecap="round" stroke-linejoin="round"/>
</svg>
